<mxfile host="app.diagrams.net" modified="2023-08-03T02:42:59.825Z" agent="Mozilla/5.0 (Macintosh; Intel Mac OS X 10_15_7) AppleWebKit/537.36 (KHTML, like Gecko) Chrome/114.0.0.0 Safari/537.36" version="21.6.6" etag="eJIHNImwuUZu4uorEMSS" type="github">
  <diagram name="第 1 页" id="MizdWWDrN7N46_SkX3mF">
    <mxGraphModel>
      <root>
        <mxCell id="0" />
        <mxCell id="1" parent="0" />
      </root>
    </mxGraphModel>
  </diagram>
</mxfile>
